# xmcd
#
# Track frame offsets: 
#        150
#        17682
#        26515
#        44401
#
# Disc length: 780 seconds
#
# Revision: 0
# Processed by: cddbd v1.5.1PL2 Copyright (c) Steve Scherf et al.
# Submitted via: ExactAudioCopy v0.95b3
#
DISCID=27030a04
DTITLE=Ila Auto - Ila Auto
DYEAR=1900
DGENRE=Bluegrass
TTITLE0=The road you walk
TTITLE1=Burcall Polka
TTITLE2=Red Clay Halo
TTITLE3=Døladrag
EXTD=
EXTT0=
EXTT1=
EXTT2=
EXTT3=
PLAYORDER=
